<svg xmlns="http://www.w3.org/2000/svg" width="34.317" height="34.317" viewBox="0 0 34.317 34.317">
  <g id="queue-24px" transform="translate(0.001)">
    <path id="Path_5" data-name="Path 5" d="M0,0H34.317V34.317H0Z" transform="translate(-0.001)" fill="none"/>
    <path id="Path_6" data-name="Path 6" d="M4.85,7.7H2V27.652A2.859,2.859,0,0,0,4.85,30.5H24.8v-2.85H4.85ZM27.652,2h-17.1A2.859,2.859,0,0,0,7.7,4.85v17.1a2.859,2.859,0,0,0,2.85,2.85h17.1a2.859,2.859,0,0,0,2.85-2.85V4.85A2.859,2.859,0,0,0,27.652,2ZM26.227,14.826h-5.7v5.7h-2.85v-5.7h-5.7v-2.85h5.7v-5.7h2.85v5.7h5.7Z" transform="translate(0.907 0.907)" fill="#fff"/>
  </g>
</svg>
