<svg xmlns="http://www.w3.org/2000/svg" width="32" height="30.769" viewBox="0 0 32 30.769">
  <g id="Icon_ionic-ios-heart" data-name="Icon ionic-ios-heart" transform="translate(-3.375 -3.938)" fill="none">
    <path d="M26.76,3.938h-.077a8.753,8.753,0,0,0-7.308,4,8.753,8.753,0,0,0-7.308-4H11.99A8.7,8.7,0,0,0,3.375,12.63,18.724,18.724,0,0,0,7.052,22.837c4.631,6.331,12.323,11.869,12.323,11.869S27.067,29.168,31.7,22.837A18.725,18.725,0,0,0,35.375,12.63,8.7,8.7,0,0,0,26.76,3.938Z" stroke="none"/>
    <path d="M 12.00651359558105 6.937494277954102 C 10.50085639953613 6.955432891845703 9.087736129760742 7.553750991821289 8.026250839233398 8.62309455871582 C 6.961420059204102 9.695804595947266 6.375 11.11874580383301 6.375 12.62980461120605 C 6.375 14.7208251953125 7.333009719848633 18.14040565490723 9.47327995300293 21.06633567810059 C 12.4672794342041 25.15945816040039 16.93301200866699 28.97878265380859 19.37607192993164 30.9258918762207 C 21.81669044494629 28.98239135742188 26.27407836914063 25.1712760925293 29.27672958374023 21.06632423400879 C 31.41699028015137 18.14039421081543 32.375 14.72081565856934 32.375 12.62980461120605 C 32.375 11.11874580383301 31.7885799407959 9.695804595947266 30.72375869750977 8.62309455871582 C 29.66227340698242 7.553750991821289 28.24914169311523 6.955432891845703 26.74348640441895 6.937494277954102 L 26.68268966674805 6.937494277954102 C 24.75699043273926 6.937494277954102 22.96475982666016 7.923595428466797 21.88846969604492 9.575315475463867 L 19.37499046325684 13.43261528015137 L 16.86152076721191 9.57530403137207 C 15.78524971008301 7.923595428466797 13.99301910400391 6.937494277954102 12.06731033325195 6.937494277954102 L 12.00651359558105 6.937494277954102 M 11.99037933349609 3.937496185302734 C 12.01346015930176 3.937496185302734 12.04422950744629 3.937496185302734 12.06731033325195 3.937496185302734 C 15.12114906311035 3.937496185302734 17.82115936279297 5.552883148193359 19.375 7.937494277954102 C 20.9288501739502 5.552883148193359 23.62884902954102 3.937496185302734 26.68268966674805 3.937496185302734 C 26.70576858520508 3.937496185302734 26.73653984069824 3.937496185302734 26.75962066650391 3.937496185302734 C 31.52116012573242 3.983654022216797 35.375 7.852884292602539 35.375 12.62980461120605 C 35.375 15.47596549987793 34.12884140014648 19.51442527770996 31.69808006286621 22.83749389648438 C 27.06731033325195 29.16826629638672 19.375 34.70672607421875 19.375 34.70672607421875 C 19.375 34.70672607421875 11.68268966674805 29.16826629638672 7.051919937133789 22.83749389648438 C 4.621150970458984 19.51442527770996 3.375 15.47596549987793 3.375 12.62980461120605 C 3.375 7.852884292602539 7.228849411010742 3.983654022216797 11.99037933349609 3.937496185302734 Z" stroke="none" fill="#06d6a0"/>
  </g>
</svg>
