<svg id="share-black-18dp" xmlns="http://www.w3.org/2000/svg" width="31.948" height="31.948" viewBox="0 0 31.948 31.948">
  <path id="Path_7" data-name="Path 7" d="M0,0H31.948V31.948H0Z" fill="none"/>
  <path id="Path_8" data-name="Path 8" d="M22.967,20.743a3.876,3.876,0,0,0-2.609,1.025l-9.491-5.524a4.358,4.358,0,0,0,.12-.932,4.358,4.358,0,0,0-.12-.932l9.385-5.471a3.985,3.985,0,1,0-1.278-2.915,4.358,4.358,0,0,0,.12.932L9.709,12.4a3.993,3.993,0,1,0,0,5.83l9.478,5.538a3.755,3.755,0,0,0-.106.865,3.887,3.887,0,1,0,3.887-3.887Z" transform="translate(0.993 0.662)" fill="#fff"/>
</svg>
