<svg xmlns="http://www.w3.org/2000/svg" width="56" height="56" viewBox="0 0 56 56">
  <path id="iconmonstr-twitter-4" d="M28,0A28,28,0,1,0,56,28,28,28,0,0,0,28,0ZM42.154,22.505c.427,9.427-6.6,19.936-19.049,19.936a18.962,18.962,0,0,1-10.271-3.012,13.483,13.483,0,0,0,9.921-2.774A6.717,6.717,0,0,1,16.492,32a6.722,6.722,0,0,0,3.029-.114,6.712,6.712,0,0,1-5.376-6.657,6.686,6.686,0,0,0,3.036.838,6.712,6.712,0,0,1-2.074-8.948,19.023,19.023,0,0,0,13.813,7,6.707,6.707,0,0,1,11.422-6.113A13.368,13.368,0,0,0,44.6,16.38a6.729,6.729,0,0,1-2.947,3.708A13.37,13.37,0,0,0,45.5,19.031,13.452,13.452,0,0,1,42.154,22.505Z" fill="#06d6a0"/>
</svg>
